For More WEB-DL's Join Us AT

  http://publichd.org/

Download High Definition Torrents
Movies / TV Shows / Documentaries

-----------------------------------------------------------------
-----------------------------------------------------------------




Cougar.Town.S03E02.720p.WEB-DL.DD5.1.h.264-NTb

General
Unique ID                                : 229889809035754293060166858582677361403 (0xACF32AADB665CAE6B506E71866C592FB)
Complete name                            : Cougar.Town.S03E01.Aint.Love.Strange.720p.WEB-DL.DD5.1.h.264-NTb
Format                                   : Matroska
Format version                           : Version 2
File size                                : 679 MiB
Duration                                 : 21mn 37s
Overall bit rate                         : 4 388 Kbps
Movie name                               : Cougar Town S03E01 Ain't Love Strange
Encoded date                             : UTC 2012-02-17 21:36:40
Writing application                      : mkvmerge v5.3.0 ('I could have danced' built on Feb 11 2012 16:21:29
Writing library                          : libebml v1.2.2 + libmatroska v1.3.0

Video
ID                                       : 1
Format                                   : AVC
Format/Info                              : Advanced Video Codec
Format profile                           : High@L3.1
Format settings, CABAC                   : No
Format settings, ReFrames                : 2 frames
Codec ID                                 : V_MPEG4/ISO/AVC
Duration                                 : 21mn 37s
Bit rate                                 : 3 917 Kbps
Width                                    : 1 280 pixels
Height                                   : 720 pixels
Display aspect ratio                     : 16:9
Frame rate                               : 23.976 fps
Color space                              : YUV
Chroma subsampling                       : 4:2:0
Bit depth                                : 8 bits
Scan type                                : Progressive
Bits/(Pixel*Frame)                       : 0.177
Stream size                              : 606 MiB (89%)
Title                                    : h.264
Language                                 : English
Default                                  : Yes
Forced                                   : No
Color primaries                          : BT.709-5, BT.1361, IEC 61966-2-4, SMPTE RP177
Transfer characteristics                 : BT.709-5, BT.1361
Matrix coefficients                      : BT.709-5, BT.1361, IEC 61966-2-4 709, SMPTE RP177

Audio
ID                                       : 2
Format                                   : AC-3
Format/Info                              : Audio Coding 3
Mode extension                           : CM (complete main)
Codec ID                                 : A_AC3
Duration                                 : 21mn 37s
Bit rate mode                            : Constant
Bit rate                                 : 384 Kbps
Channel(s)                               : 6 channels
Channel positions                        : Front: L C R, Side: L R, LFE
Sampling rate                            : 48.0 KHz
Bit depth                                : 16 bits
Compression mode                         : Lossy
Stream size                              : 59.4 MiB (9%)
Title                                    : DD 5.1
Language                                 : English
Default                                  : Yes
Forced                                   : No